<svg id="visual" viewBox="0 0 960 540" width="960" height="540" xmlns="http://www.w3.org/2000/svg" xmlns:xlink="http://www.w3.org/1999/xlink" version="1.1"><rect width="960" height="540" fill="#febd2e"></rect><g><g transform="translate(336 282)"><path d="M96.8 -32C107.5 1.6 86 45.1 52.5 68.5C19.1 92 -26.2 95.2 -58.9 73.4C-91.5 51.5 -111.4 4.4 -99.5 -30.8C-87.6 -66 -43.8 -89.4 -0.4 -89.2C43 -89.1 86.1 -65.5 96.8 -32Z" stroke="#f70f80" fill="none" stroke-width="20"></path></g><g transform="translate(863 521)"><path d="M62.4 -18.8C70.9 5.6 60.7 37.6 37.7 55.1C14.6 72.6 -21.3 75.6 -43.3 59.6C-65.3 43.6 -73.5 8.5 -64 -17.5C-54.5 -43.4 -27.2 -60.3 -0.1 -60.3C27 -60.3 54 -43.3 62.4 -18.8Z" stroke="#f70f80" fill="none" stroke-width="20"></path></g><g transform="translate(701 88)"><path d="M62.2 -23.2C69.2 1.3 55.5 29.5 33.4 45.5C11.2 61.5 -19.5 65.3 -38.9 51.7C-58.3 38 -66.5 6.9 -58.1 -19.5C-49.7 -45.8 -24.9 -67.4 1.4 -67.9C27.6 -68.3 55.2 -47.6 62.2 -23.2Z" stroke="#f70f80" fill="none" stroke-width="20"></path></g></g></svg>